<?xml version="1.0" encoding="UTF-8" standalone="no"?>
<svg width="280px" height="122px" viewBox="0 0 280 122" version="1.1" xmlns="http://www.w3.org/2000/svg" xmlns:xlink="http://www.w3.org/1999/xlink">
    <!-- Generator: Sketch 3.6.1 (26313) - http://www.bohemiancoding.com/sketch -->
    <title>vector clearspacing</title>
    <desc>Created with Sketch.</desc>
    <defs></defs>
    <g id="Page-1" stroke="none" stroke-width="1" fill="none" fill-rule="evenodd">
        <g id="Desktop" transform="translate(-618.000000, -1589.000000)">
            <g id="vector-clearspacing" transform="translate(618.000000, 1589.000000)">
                <g id="discogs-logo" transform="translate(21.000000, 15.000000)">
                    <path d="M12.4253829,0 L0,0 L0,62.2860898 L14.6100656,62.2860898 C22.2564551,62.2860898 27.5816193,60.0078861 30.6310722,55.4970427 C33.6805252,50.9861993 35.1824945,42.7391019 35.1824945,30.8468784 C35.1824945,19.1369113 33.6805252,11.0720701 30.6310722,6.65235487 C27.5816193,2.23263965 21.5282276,0 12.4253829,0 L12.4253829,0 Z M20.6179431,52.3986857 C19.5256018,54.4946331 17.5684902,55.4970427 14.7466083,55.4970427 L12.5164114,55.4970427 L12.5164114,6.83461117 L14.7466083,6.83461117 C17.6140044,6.83461117 19.571116,8.61161008 20.6634573,12.1200438 C21.7557987,15.6284775 22.3019694,22.0985761 22.3019694,31.4847755 C22.2564551,43.3314348 21.7102845,50.3027382 20.6179431,52.3986857 L20.6179431,52.3986857 Z" id="Shape" fill="#333333"></path>
                    <rect id="Rectangle-path" fill="#333333" x="37.5947484" y="0.0455640745" width="11.7426696" height="10.8898138"></rect>
                    <rect id="Rectangle-path" fill="#333333" x="37.5947484" y="14.5805038" width="11.7426696" height="47.705586"></rect>
                    <path d="M69.0450766,35.3577218 C65.3129103,32.0771084 63.0827133,29.8444688 62.3544858,28.6142388 C61.6262582,27.3840088 61.2621444,26.1537788 61.2621444,24.8324206 C61.2621444,23.7388828 61.580744,22.9187295 62.2179431,22.3263965 C62.8551422,21.7340635 63.628884,21.4606791 64.5846827,21.4606791 C65.7225383,21.4606791 66.5873085,21.9163198 67.2245077,22.7820372 C67.8617068,23.6477547 68.1803063,24.8324206 68.1803063,26.2449069 L77.5562363,26.2449069 C77.5562363,22.3263965 76.4183807,19.2736035 74.1881838,17.132092 C71.9579869,14.9905805 68.726477,13.9426068 64.4936543,13.9426068 C60.5339168,13.9426068 57.3479212,14.9905805 54.9356674,17.0409639 C52.5234136,19.1369113 51.2945295,21.9163198 51.2945295,25.4247536 C51.2945295,28.7964951 51.795186,31.6214677 52.7509847,33.8996714 C53.7067834,36.1778751 55.9824945,38.8661555 59.5781182,42.0100767 C62.4,44.4249726 64.44814,46.3386637 65.6770241,47.6600219 C66.9059081,48.9813801 67.5431072,50.2116101 67.5431072,51.3507119 C67.5431072,52.5809419 67.2700219,53.4922234 66.678337,54.1301205 C66.0866521,54.7680175 65.2218818,55.041402 64.038512,55.041402 C62.809628,55.041402 61.8993435,54.6313253 61.2621444,53.856736 C60.6249453,53.0821468 60.3063457,51.8063527 60.3063457,50.0749179 L50.7938731,50.0749179 C50.7938731,54.2668127 51.9317287,57.4562979 54.2074398,59.5522453 C56.483151,61.6481928 59.8512035,62.6961665 64.3571116,62.6961665 C68.5444201,62.6961665 71.8214442,61.5570646 74.233698,59.324425 C76.6459519,57.0917853 77.8293217,53.9478642 77.8293217,49.8926616 C77.8293217,47.2955093 77.1921225,44.9261774 75.9177243,42.83023 C74.643326,40.7342826 72.3676149,38.2738226 69.0450766,35.3577218 L69.0450766,35.3577218 Z" id="Shape" fill="#333333"></path>
                    <path d="M205.997374,42.8757941 C204.722976,40.7798467 202.447265,38.2738226 199.170241,35.4032859 C195.438074,32.1226725 193.207877,29.8900329 192.47965,28.6598028 C191.751422,27.4295728 191.387309,26.1993428 191.387309,24.8779847 C191.387309,23.7844469 191.705908,22.9642935 192.343107,22.3719606 C192.980306,21.7796276 193.754048,21.5062432 194.709847,21.5062432 C195.847702,21.5062432 196.712473,21.9618839 197.349672,22.8276013 C197.986871,23.6933187 198.30547,24.8779847 198.30547,26.290471 L207.6814,26.290471 C207.6814,22.3719606 206.543545,19.3191676 204.313348,17.1776561 C202.083151,15.0361446 198.851641,13.9881709 194.618818,13.9881709 C190.659081,13.9881709 187.473085,15.0361446 185.060832,17.0865279 C182.648578,19.1824754 181.419694,21.9618839 181.419694,25.4703176 C181.419694,28.8420591 181.92035,31.6670318 182.876149,33.9452355 C183.831947,36.2234392 186.107659,38.9117196 189.703282,42.0556407 C192.525164,44.4705367 194.573304,46.3842278 195.802188,47.705586 C197.031072,49.0269441 197.668271,50.2571742 197.668271,51.396276 C197.668271,52.626506 197.395186,53.5377875 196.757987,54.1756846 C196.166302,54.8135816 195.301532,55.086966 194.118162,55.086966 C192.889278,55.086966 191.978993,54.6768894 191.341794,53.9023001 C190.704595,53.1277108 190.385996,51.8519168 190.385996,50.1204819 L180.873523,50.1204819 C180.873523,54.3123768 182.011379,57.501862 184.28709,59.5978094 C186.562801,61.6937568 189.930853,62.7417306 194.436761,62.7417306 C198.62407,62.7417306 201.901094,61.6026287 204.313348,59.369989 C206.725602,57.1373494 207.908972,53.9934283 207.908972,49.9382256 C207.863457,47.2955093 207.226258,44.9717415 205.997374,42.8757941 L205.997374,42.8757941 Z" id="Shape" fill="#333333"></path>
                    <path d="M102.407002,50.4394304 L97.9921225,50.4394304 C97.8100656,52.4898138 97.4914661,53.811172 96.9908096,54.449069 C96.4901532,55.086966 95.7164114,55.3603505 94.6695842,55.3603505 C92.985558,55.3603505 91.8932166,54.3579409 91.4380744,52.3986857 C90.9374179,50.4394304 90.7098468,45.7463308 90.7098468,38.3193866 C90.7098468,31.8948521 90.9374179,27.4751369 91.347046,25.0146769 C91.756674,22.5542169 92.8490153,21.3239869 94.5330416,21.3239869 C95.5343545,21.3239869 96.2625821,21.7340635 96.6722101,22.5997809 C97.0818381,23.4654984 97.3094092,25.3336254 97.3094092,28.2497262 L102.452516,28.2497262 C103.590372,25.8803943 105.001313,23.6933187 106.776368,21.7796276 C106.230197,20.0937568 105.365427,18.6357065 104.273085,17.4966046 C101.997374,15.1272727 98.7203501,13.9426068 94.4875274,13.9426068 C89.1623632,13.9426068 85.1571116,15.9929901 82.5172867,20.0937568 C79.8774617,24.1945235 78.5575492,30.2545455 78.5575492,38.3193866 C78.5575492,46.4297919 79.8319475,52.5353779 82.380744,56.5905805 C84.9295405,60.6913472 88.6617068,62.7417306 93.6227571,62.7417306 C97.9921225,62.7417306 101.269147,61.7393209 103.453829,59.7345016 C104.546171,58.732092 105.319912,57.501862 105.866083,55.9526835 C104.500656,54.2668127 103.362801,52.3986857 102.407002,50.4394304 L102.407002,50.4394304 Z" id="Shape" fill="#333333"></path>
                    <path d="M152.427133,39.4129244 C152.427133,44.06046 151.243764,48.3890471 149.104595,52.1708653 C149.832823,54.8591457 150.87965,56.909529 152.245077,58.3675794 C154.11116,60.2812705 156.70547,61.2381161 160.028009,61.2381161 C161.98512,61.2381161 163.714661,60.9647317 165.171116,60.4635268 C166.627571,59.962322 167.628884,59.2788609 168.12954,58.4587076 C168.175055,58.9143483 168.220569,59.369989 168.220569,59.7345016 C168.266083,60.0990142 168.266083,60.4635268 168.266083,60.7824754 C168.266083,63.2884995 167.719912,65.1566265 166.582057,66.4324206 C165.444201,67.7082147 163.714661,68.3916758 161.347921,68.3916758 C159.800438,68.3916758 158.070897,68.2094195 156.204814,67.8449069 C154.338731,67.4803943 152.791247,67.0703176 151.607877,66.5235487 L150.151422,73.0392114 C151.926477,73.8593647 153.883589,74.4516977 156.068271,74.8617744 C158.252954,75.271851 160.392123,75.4541073 162.485777,75.4541073 C167.58337,75.4541073 171.588621,74.1783133 174.59256,71.6267251 C177.550985,69.0751369 179.052954,65.475575 179.052954,60.8280394 L179.052954,14.5805038 L167.355799,14.5805038 L167.355799,15.7196057 C166.308972,15.0817087 165.262144,14.6260679 164.215317,14.3526835 C163.16849,14.079299 161.939606,13.9426068 160.528665,13.9426068 C157.661269,13.9426068 155.249015,14.8083242 153.291904,16.5853231 C151.289278,18.362322 149.878337,20.822782 149.013567,23.9211391 C148.877024,24.467908 148.694967,25.105805 148.558425,25.8803943 C151.016193,29.8444688 152.381619,34.4464403 152.427133,39.4129244 L152.427133,39.4129244 Z M167.446827,53.4466594 C166.946171,53.856736 166.445514,54.1301205 165.944858,54.3123768 C165.444201,54.4946331 164.761488,54.5857612 163.942232,54.5857612 C162.849891,54.5857612 162.030635,54.2668127 161.43895,53.6289157 C160.847265,52.9910186 160.483151,51.9430449 160.346608,50.4849945 C160.210066,48.9813801 160.073523,47.0676889 159.982495,44.7894852 C159.891466,42.5112815 159.845952,40.0963855 159.845952,37.5447974 C159.845952,35.9044907 159.891466,34.0819277 159.982495,31.9404162 C160.073523,29.8444688 160.210066,27.8852136 160.392123,26.0626506 C160.574179,24.2856517 160.938293,23.1009858 161.575492,22.4630887 C162.212691,21.8251917 163.16849,21.5062432 164.442888,21.5062432 C164.898031,21.5062432 165.444201,21.5973713 166.035886,21.6884995 C166.627571,21.8251917 167.128228,22.007448 167.446827,22.1897043 L167.446827,53.4466594 L167.446827,53.4466594 Z" id="Shape" fill="#333333"></path>
                    <g id="Vinyl-Mark" transform="translate(101.496718, 14.580504)">
                        <path d="M24.7597374,15.6284775 C19.7076586,15.6284775 15.6113786,19.7292442 15.6113786,24.7868565 C15.6113786,27.3840088 16.7037199,29.7077766 18.3877462,31.3480832 C18.3877462,31.3480832 18.3877462,31.3480832 18.3422319,31.3025192 L15.9754923,33.8996714 C16.7947484,34.7198248 17.750547,35.4032859 18.75186,35.9500548 L20.4814004,32.8972618 L20.4814004,32.8972618 C21.7557987,33.5807229 23.2122538,33.9452355 24.7142232,33.9452355 C29.766302,33.9452355 33.8170678,29.8444688 33.8170678,24.7868565 C33.8170678,22.3263965 32.8612691,20.1393209 31.3137856,18.4990142 L33.7260394,15.901862 C32.9067834,15.0817087 31.9964989,14.3526835 30.995186,13.7603505 L29.3111597,16.8587076 C27.945733,16.0841183 26.3982495,15.6284775 24.7597374,15.6284775 L24.7597374,15.6284775 Z" id="Shape"></path>
                        <path d="M12.9715536,37.1802848 L10.5592998,39.8230011 C11.833698,41.0532311 13.2901532,42.1012048 14.883151,42.9669222 L16.6582057,39.8230011 C15.2472648,39.0939759 14.063895,38.2282585 12.9715536,37.1802848 L12.9715536,37.1802848 Z" id="Shape"></path>
                        <path d="M36.7754923,12.6212486 L39.1877462,9.97853231 C37.8678337,8.70273823 36.4113786,7.60920044 34.8183807,6.69791895 L33.0888403,9.84184009 C34.454267,10.6164294 35.683151,11.5732749 36.7754923,12.6212486 L36.7754923,12.6212486 Z" id="Shape"></path>
                        <path d="M34.0446389,15.5829135 L36.4568928,12.9857612 C35.4100656,11.9377875 34.2266958,11.026506 32.9067834,10.2974808 L31.1772429,13.3958379 C32.2695842,13.9881709 33.2253829,14.7171961 34.0446389,15.5829135 L34.0446389,15.5829135 Z" id="Shape"></path>
                        <path d="M15.702407,34.2186199 L13.2901532,36.8157722 C14.3369803,37.8181818 15.5203501,38.6838992 16.8402626,39.4129244 L18.5698031,36.3145674 C17.5229759,35.7677985 16.521663,35.0387733 15.702407,34.2186199 L15.702407,34.2186199 Z" id="Shape"></path>
                        <path d="M12.1067834,24.7868565 C12.1067834,28.3864184 13.6087527,31.5759036 15.9754923,33.8996714 L18.3422319,31.3025192 C18.3422319,31.3025192 18.3422319,31.3025192 18.3877462,31.3480832 C16.6582057,29.7077766 15.6113786,27.3840088 15.6113786,24.7868565 C15.6113786,19.7292442 19.7076586,15.6284775 24.7597374,15.6284775 C26.4437637,15.6284775 27.9912473,16.0841183 29.3111597,16.8587076 L30.995186,13.7603505 C29.1291028,12.7123768 27.0354486,12.1200438 24.7597374,12.1200438 C17.7960613,12.1200438 12.1067834,17.8155531 12.1067834,24.7868565 L12.1067834,24.7868565 Z" id="Shape" fill="#333333"></path>
                        <path d="M33.8625821,24.7868565 C33.8625821,29.8444688 29.766302,33.9452355 24.7597374,33.9452355 C23.2122538,33.9452355 21.8013129,33.5807229 20.5269147,32.8972618 L20.5269147,32.8972618 L18.7973742,35.9500548 C20.5724289,36.9069003 22.6205689,37.4536692 24.7597374,37.4536692 C31.7234136,37.4536692 37.4126915,31.7581599 37.4126915,24.7868565 C37.4126915,21.3239869 36.0017505,18.1800657 33.7715536,15.901862 L31.3592998,18.4990142 C32.9067834,20.1393209 33.8625821,22.3263965 33.8625821,24.7868565 L33.8625821,24.7868565 Z" id="Shape" fill="#333333"></path>
                        <path d="M8.10153173,24.7868565 C8.10153173,29.5255203 10.1041575,33.8085433 13.2901532,36.8613363 L15.702407,34.264184 C13.1991247,31.8948521 11.6516411,28.5231106 11.6516411,24.8324206 C11.6516411,17.5877327 17.5229759,11.7099671 24.7597374,11.7099671 C27.126477,11.7099671 29.3111597,12.3478642 31.2227571,13.441402 L32.9522976,10.3430449 C30.5400438,8.97612267 27.7636761,8.20153341 24.7597374,8.20153341 C15.5658643,8.11040526 8.10153173,15.5829135 8.10153173,24.7868565 L8.10153173,24.7868565 Z" id="Shape" fill="#333333"></path>
                        <path d="M37.8223195,24.7868565 C37.8223195,32.0315444 31.9509847,37.90931 24.7142232,37.90931 C22.4840263,37.90931 20.390372,37.3625411 18.5242888,36.3601314 L16.7947484,39.4584885 C19.161488,40.7342826 21.8468271,41.4633078 24.7142232,41.4633078 C33.9080963,41.4633078 41.3724289,33.9907996 41.3724289,24.7868565 C41.3724289,20.184885 39.5063457,15.9929901 36.4568928,12.9857612 L34.0446389,15.5829135 C36.4113786,17.9522453 37.8223195,21.1872946 37.8223195,24.7868565 L37.8223195,24.7868565 Z" id="Shape" fill="#333333"></path>
                        <path d="M41.8275711,24.7868565 C41.8275711,34.2186199 34.1356674,41.9189485 24.7142232,41.9189485 C21.7557987,41.9189485 18.9794311,41.1899233 16.5671772,39.8685652 L14.7921225,43.0124863 C17.750547,44.6072289 21.1185996,45.5640745 24.7142232,45.5640745 C36.1382932,45.5640745 45.3776805,36.2690033 45.3776805,24.8779847 C45.3776805,19.0913472 43.0109409,13.8514786 39.1877462,10.1152245 L36.7754923,12.7579409 C39.9159737,15.7196057 41.8275711,20.0481928 41.8275711,24.7868565 L41.8275711,24.7868565 Z" id="Shape" fill="#333333"></path>
                        <path d="M4.05076586,24.7868565 C4.05076586,30.7101862 6.55404814,36.0411829 10.5137856,39.8230011 L12.9260394,37.1802848 C9.64901532,34.0819277 7.60087527,29.6622125 7.60087527,24.7868565 C7.60087527,15.3550931 15.292779,7.65476451 24.7142232,7.65476451 C27.7636761,7.65476451 30.6310722,8.47491785 33.0888403,9.88740416 L34.8183807,6.74348302 C31.814442,5.05761227 28.3553611,4.1007667 24.7142232,4.1007667 C13.3356674,4.05520263 4.05076586,13.3502738 4.05076586,24.7868565 L4.05076586,24.7868565 Z" id="Shape" fill="#333333"></path>
                        <path d="M41.9185996,7.10799562 L39.55186,9.65958379 C43.4660832,13.486966 45.9238512,18.8635268 45.9238512,24.7412924 C45.9238512,36.4056955 36.4568928,45.883023 24.8052516,45.883023 C21.1185996,45.883023 17.7050328,44.9261774 14.7010941,43.2858708 L12.9260394,46.4297919 C16.4306346,48.343483 20.4814004,49.4825849 24.7597374,49.4825849 C38.3684902,49.4825849 49.4284464,38.4105148 49.4284464,24.7868565 C49.3829322,17.8611172 46.5155361,11.618839 41.9185996,7.10799562 L41.9185996,7.10799562 Z" id="Shape" fill="#333333"></path>
                        <path d="M3.59562363,24.7868565 C3.59562363,13.1224535 13.0625821,3.64512596 24.7142232,3.64512596 C28.4463895,3.64512596 31.9964989,4.6475356 35.0459519,6.37897043 L36.7299781,3.32617744 C33.2708972,1.36692223 29.3111597,0.227820372 25.078337,0.182256298 L24.668709,0.182256298 C11.1054705,0.182256298 0.13654267,11.1176342 -1.77635684e-14,24.6501643 L-1.77635684e-14,24.6501643 L-1.77635684e-14,24.8779847 C-1.77635684e-14,31.9404162 3.00393873,38.3193866 7.78293217,42.83023 L10.2407002,40.1875137 C6.14442013,36.2690033 3.59562363,30.8468784 3.59562363,24.7868565 L3.59562363,24.7868565 Z" id="Shape" fill="#333333"></path>
                        <path d="M17.750547,24.7868565 C17.750547,20.9139102 20.8910284,17.769989 24.7597374,17.769989 L24.7597374,17.769989 C28.6284464,17.769989 31.7689278,20.9139102 31.7689278,24.7868565 L31.7689278,24.7868565 C31.7689278,28.6598028 28.6284464,31.803724 24.7597374,31.803724 L24.7597374,31.803724 C20.8910284,31.803724 17.750547,28.6598028 17.750547,24.7868565 L17.750547,24.7868565 L17.750547,24.7868565 Z M18.0691466,24.7868565 C18.0691466,28.4775465 21.0730853,31.4847755 24.7597374,31.4847755 L24.7597374,31.4847755 C28.4463895,31.4847755 31.4503282,28.4775465 31.4503282,24.7868565 L31.4503282,24.7868565 C31.4503282,21.0961665 28.4463895,18.0889376 24.7597374,18.0889376 L24.7597374,18.0889376 C21.0275711,18.0889376 18.0691466,21.0961665 18.0691466,24.7868565 L18.0691466,24.7868565 L18.0691466,24.7868565 Z" id="Shape" fill="#333333"></path>
                        <path d="M25.8520788,24.7868565 C25.8520788,25.3791895 25.3514223,25.8803943 24.7597374,25.8803943 C24.1680525,25.8803943 23.6673961,25.3791895 23.6673961,24.7868565 C23.6673961,24.1945235 24.1680525,23.6933187 24.7597374,23.6933187 C25.3514223,23.6933187 25.8520788,24.1945235 25.8520788,24.7868565 L25.8520788,24.7868565 Z" id="Shape" fill="#333333"></path>
                    </g>
                    <path d="M201.218381,10.0240964 C201.400438,9.65958379 201.628009,9.34063527 201.901094,9.06725082 C202.174179,8.79386637 202.538293,8.61161008 202.902407,8.42935378 C203.266521,8.29266156 203.676149,8.20153341 204.085777,8.20153341 C204.495405,8.20153341 204.905033,8.29266156 205.269147,8.42935378 C205.63326,8.566046 205.997374,8.79386637 206.27046,9.06725082 C206.543545,9.34063527 206.771116,9.65958379 206.953173,10.0240964 C207.13523,10.388609 207.226258,10.8442497 207.226258,11.2998905 C207.226258,11.7555312 207.13523,12.211172 206.953173,12.5756846 C206.771116,12.9401972 206.543545,13.2591457 206.27046,13.5325301 C205.997374,13.8059146 205.63326,13.9881709 205.269147,14.1248631 C204.905033,14.2615553 204.495405,14.3526835 204.085777,14.3526835 C203.676149,14.3526835 203.266521,14.2615553 202.902407,14.1248631 C202.538293,13.9881709 202.174179,13.7603505 201.901094,13.5325301 C201.628009,13.3047097 201.400438,12.9401972 201.218381,12.5756846 C201.036324,12.211172 200.945295,11.7555312 200.945295,11.2998905 C200.99081,10.7986857 201.081838,10.388609 201.218381,10.0240964 L201.218381,10.0240964 Z M201.992123,12.256736 C202.128665,12.5301205 202.265208,12.8035049 202.492779,13.0313253 C202.72035,13.2591457 202.947921,13.3958379 203.221007,13.5325301 C203.494092,13.6692223 203.812691,13.7147864 204.131291,13.7147864 C204.449891,13.7147864 204.76849,13.6692223 205.041575,13.5325301 C205.314661,13.3958379 205.587746,13.2591457 205.769803,13.0313253 C205.997374,12.8035049 206.133917,12.5756846 206.27046,12.256736 C206.407002,11.9833516 206.452516,11.618839 206.452516,11.2998905 C206.452516,10.9809419 206.407002,10.6164294 206.27046,10.3430449 C206.133917,10.0696605 205.997374,9.79627601 205.769803,9.56845564 C205.542232,9.34063527 205.314661,9.20394304 205.041575,9.06725082 C204.76849,8.9305586 204.449891,8.88499452 204.131291,8.88499452 C203.812691,8.88499452 203.494092,8.9305586 203.221007,9.06725082 C202.947921,9.20394304 202.674836,9.34063527 202.492779,9.56845564 C202.265208,9.79627601 202.128665,10.0240964 201.992123,10.3430449 C201.85558,10.6164294 201.810066,10.9353779 201.810066,11.2998905 C201.810066,11.6644031 201.85558,11.9377875 201.992123,12.256736 L201.992123,12.256736 Z M204.176805,9.56845564 C204.586433,9.56845564 204.950547,9.65958379 205.178118,9.79627601 C205.405689,9.93296824 205.542232,10.2063527 205.542232,10.5708653 C205.542232,10.7075575 205.496718,10.8442497 205.451204,10.9809419 C205.405689,11.0720701 205.360175,11.1631982 205.269147,11.2543264 C205.178118,11.3454545 205.08709,11.3910186 204.996061,11.4365827 C204.905033,11.4821468 204.76849,11.4821468 204.631947,11.5277108 L205.542232,13.0313253 L204.814004,13.0313253 L203.994748,11.5732749 L203.58512,11.5732749 L203.58512,13.0313253 L202.902407,13.0313253 L202.902407,9.56845564 L204.176805,9.56845564 L204.176805,9.56845564 Z M204.176805,10.9809419 C204.358862,10.9809419 204.540919,10.9353779 204.677462,10.8898138 C204.814004,10.8442497 204.859519,10.7075575 204.859519,10.4797371 C204.859519,10.388609 204.859519,10.2974808 204.814004,10.2519168 C204.76849,10.2063527 204.722976,10.1607886 204.631947,10.1152245 C204.586433,10.0696605 204.495405,10.0696605 204.404376,10.0696605 L204.176805,10.0696605 L203.58512,10.0696605 L203.58512,10.9809419 L204.176805,10.9809419 L204.176805,10.9809419 Z" id="Shape" fill="#333333"></path>
                </g>
                <rect id="Rectangle-33" fill-opacity="0.2" fill="#439ADC" x="229" y="78" width="25" height="25"></rect>
                <path d="M122,102.356567 L129.25293,99 L129.25293,105.713135 L122,102.356567 Z" id="Path-99" fill="#439ADC"></path>
                <path d="M140,102.356567 L147.25293,99 L147.25293,105.713135 L140,102.356567 Z" id="Path-99" fill="#439ADC" transform="translate(143.626465, 102.356567) scale(-1, 1) translate(-143.626465, -102.356567) "></path>
                <g id="paths" stroke="#439ADC">
                    <path d="M122.5,0 L122.5,121.635742" id="Path-93"></path>
                    <path d="M229.5,0 L229.5,121.635742" id="Path-93"></path>
                    <path d="M254.5,0 L254.5,121.635742" id="Path-93"></path>
                    <path d="M147.5,0 L147.5,121.635742" id="Path-93"></path>
                    <path d="M0,103 L280,103" id="Path-97"></path>
                    <path d="M0,78 L280,78" id="Path-97"></path>
                </g>
            </g>
        </g>
    </g>
</svg>