<?xml version="1.0" encoding="UTF-8" standalone="no"?>
<svg width="250px" height="50px" viewBox="0 0 694 148" version="1.1" xmlns="http://www.w3.org/2000/svg" xmlns:xlink="http://www.w3.org/1999/xlink">
    <!-- Generator: Sketch 39.1 (31720) - http://www.bohemiancoding.com/sketch -->
    <title>logo</title>
    <desc>Created with Sketch.</desc>
    <defs>
        <rect id="path-1" x="26.0515298" y="26.4031184" width="113.511555" height="113.511555" rx="8"></rect>
        <mask id="mask-2" maskContentUnits="userSpaceOnUse" maskUnits="objectBoundingBox" x="0" y="0" width="150.366046" height="150.366046" fill="white">
            <use xlink:href="#path-1"></use>
        </mask>
        <path d="M122.014388,25.4355396 C121.232861,22.3010056 118.057198,20.3937829 114.923732,21.1750437 L23.4355396,43.985612 C20.3010056,44.7671391 18.3937829,47.9428023 19.1750437,51.0762679 L41.985612,142.56446 C42.7671391,145.698994 45.9428023,147.606217 49.0762679,146.824956 L140.56446,124.014388 C143.698994,123.232861 145.606217,120.057198 144.824956,116.923732 L122.014388,25.4355396" id="path-3"></path>
        <mask id="mask-4" maskContentUnits="userSpaceOnUse" maskUnits="objectBoundingBox" x="0" y="0" width="126" height="126" fill="white">
            <use xlink:href="#path-3"></use>
        </mask>
        <rect id="path-5" x="34.6799648" y="37.9412099" width="96.995171" height="96.995171" rx="8"></rect>
        <mask id="mask-6" maskContentUnits="userSpaceOnUse" maskUnits="objectBoundingBox" x="0" y="0" width="96.995171" height="96.995171" fill="white">
            <use xlink:href="#path-5"></use>
        </mask>
        <path d="M54.2419512,34.99282 C51.1787267,34.3417116 48.1695938,36.2880435 47.5165565,39.3603424 L31.4753207,114.828423 C30.8242122,117.891648 32.7705441,120.900781 35.8428431,121.553818 L111.310924,137.595054 C114.374148,138.246162 117.383281,136.29983 118.036319,133.227531 L134.077554,57.7594505 C134.728663,54.696226 132.782331,51.6870931 129.710032,51.0340558 L54.2419512,34.99282" id="path-7"></path>
        <mask id="mask-8" maskContentUnits="userSpaceOnUse" maskUnits="objectBoundingBox" x="0" y="0" width="102.853184" height="102.853184" fill="white">
            <use xlink:href="#path-7"></use>
        </mask>
    </defs>
    <g id="Page-1" stroke="none" stroke-width="1" fill="none" fill-rule="evenodd">
        <g id="Plethora-Logo" transform="translate(-73.000000, -77.000000)">
            <g id="logo" transform="translate(64.000000, 68.000000)">
                <use id="Rectangle-2" stroke="#000000" mask="url(#mask-2)" stroke-width="6" fill="#FFFFFF" transform="translate(82.807307, 83.158896) rotate(6.000000) translate(-82.807307, -83.158896) " xlink:href="#path-1"></use>
                <use id="Rectangle-2" stroke="#000000" mask="url(#mask-4)" stroke-width="6" fill="#FFFFFF" xlink:href="#path-3"></use>
                <use id="Rectangle" stroke="#000000" mask="url(#mask-6)" stroke-width="6" fill="#FFFFFF" transform="translate(83.177550, 86.438795) rotate(7.000000) translate(-83.177550, -86.438795) " xlink:href="#path-5"></use>
                <use id="Rectangle-2" stroke="#000000" mask="url(#mask-8)" stroke-width="6" fill="#FFFFFF" transform="translate(82.776438, 86.293937) rotate(10.000000) translate(-82.776438, -86.293937) " xlink:href="#path-7"></use>
                <text id="PLETHORA" font-family="AmericanTypewriter-CondensedLight, American Typewriter" font-size="103" font-style="condensed" font-weight="300" fill="#000000">
                    <tspan x="59" y="121">P &#160;L E T H O R A   </tspan>
                </text>
            </g>
        </g>
    </g>
</svg>
